<?xml version="1.0" encoding="UTF-8" standalone="no"?>
<svg width="40px" height="40px" viewBox="0 0 40 40" version="1.1" xmlns="http://www.w3.org/2000/svg" xmlns:xlink="http://www.w3.org/1999/xlink" xmlns:sketch="http://www.bohemiancoding.com/sketch/ns">
    <!-- Generator: Sketch 3.5.2 (25235) - http://www.bohemiancoding.com/sketch -->
    <title>Installing and configuring your store Extended</title>
    <desc>Created with Sketch.</desc>
    <defs></defs>
    <g id="Page-1" stroke="none" stroke-width="1" fill="none" fill-rule="evenodd" sketch:type="MSPage">
        <g id="Installing-and-configuring-your-store-Extended" sketch:type="MSArtboardGroup">
            <g sketch:type="MSLayerGroup">
                <path d="M37,40 L3,40 C1.343,40 0,38.657 0,37 L0,3 C0,1.343 1.343,0 3,0 L37,0 C38.657,0 40,1.343 40,3 L40,37 C40,38.657 38.657,40 37,40" id="Fill-1" fill="#F2511E" sketch:type="MSShapeGroup"></path>
                <path d="M12.011,18.7864 C10.719,18.9144 9.567,17.9714 9.439,16.6794 C9.31,15.3864 10.254,14.2354 11.546,14.1064 C12.838,13.9784 13.99,14.9214 14.118,16.2144 C14.247,17.5064 13.303,18.6584 12.011,18.7864 M19.214,13.9884 L18.088,14.1004 C17.872,13.5214 17.583,12.9814 17.227,12.4934 L17.944,11.6184 C18.093,11.4364 18.066,11.1654 17.884,11.0164 L15.9,9.3914 C15.718,9.2424 15.447,9.2694 15.298,9.4514 L14.582,10.3264 C14.033,10.0744 13.447,9.8954 12.836,9.7994 L12.724,8.6724 C12.701,8.4384 12.491,8.2664 12.257,8.2894 L9.704,8.5434 C9.47,8.5664 9.298,8.7774 9.321,9.0114 L9.433,10.1374 C8.853,10.3524 8.314,10.6424 7.825,10.9974 L6.95,10.2804 C6.768,10.1314 6.498,10.1584 6.349,10.3404 L4.723,12.3244 C4.574,12.5064 4.601,12.7774 4.783,12.9264 L5.658,13.6434 C5.406,14.1924 5.228,14.7774 5.131,15.3884 L4.005,15.5004 C3.771,15.5234 3.598,15.7344 3.621,15.9684 L3.875,18.5214 C3.898,18.7554 4.109,18.9274 4.343,18.9044 L5.469,18.7924 C5.684,19.3724 5.974,19.9114 6.329,20.3994 L5.613,21.2744 C5.464,21.4564 5.491,21.7274 5.672,21.8764 L7.657,23.5014 C7.839,23.6504 8.109,23.6244 8.258,23.4424 L8.975,22.5674 C9.524,22.8194 10.11,22.9974 10.721,23.0944 L10.833,24.2204 C10.856,24.4544 11.066,24.6264 11.3,24.6034 L13.853,24.3494 C14.087,24.3264 14.259,24.1164 14.236,23.8824 L14.124,22.7554 C14.704,22.5404 15.243,22.2504 15.732,21.8954 L16.607,22.6124 C16.788,22.7614 17.059,22.7344 17.208,22.5524 L18.834,20.5684 C18.983,20.3864 18.956,20.1154 18.774,19.9664 L17.899,19.2494 C18.151,18.7004 18.329,18.1154 18.426,17.5044 L19.552,17.3924 C19.786,17.3694 19.959,17.1584 19.935,16.9244 L19.682,14.3724 C19.658,14.1384 19.448,13.9654 19.214,13.9884" id="Fill-3" fill="#FDC828" sketch:type="MSShapeGroup"></path>
                <path d="M38.1937,15.0971 C36.7667,16.1701 34.7407,15.8831 33.6677,14.4571 C32.5947,13.0301 32.8817,11.0041 34.3087,9.9311 C35.7347,8.8581 37.7617,9.1441 38.8347,10.5711 C39.9067,11.9981 39.6207,14.0241 38.1937,15.0971 M39.9997,22.7761 L39.9997,7.6381 C36.3377,4.0841 30.5417,3.6141 26.3357,6.7771 C23.1897,9.1441 21.7497,12.9311 22.2237,16.5741 C22.4517,18.3211 23.1127,20.0341 24.2467,21.5421 C25.1457,22.7381 26.2547,23.6801 27.4797,24.3721 C26.0087,24.1111 24.7057,23.2261 23.6837,21.9651 C23.2587,21.4411 22.9017,20.8981 22.6067,20.3321 L8.8597,30.6711 C8.5877,30.8751 8.2017,30.8201 7.9977,30.5491 C7.7937,30.2771 7.8477,29.8911 8.1197,29.6871 L22.1037,19.1691 C21.8667,18.4911 21.7067,17.7791 21.6317,17.0201 L5.5357,29.1261 C5.5357,29.1261 4.4337,32.8541 4.3027,33.2881 C3.8427,34.8121 4.5977,35.3891 5.6517,35.5091 C6.7067,35.6301 12.8807,36.5791 12.8807,36.5791 L12.9877,32.8061 L17.1217,33.3891 L16.7757,29.7971 L21.1817,30.3351 L20.5797,26.6691 L25.1327,27.3131 C25.1327,27.3131 27.4137,25.6131 28.4307,24.8531 L28.4317,24.8531 C28.4337,24.8511 28.4347,24.8501 28.4357,24.8491 L28.4357,24.8491 C28.4347,24.8501 28.4337,24.8511 28.4317,24.8531 C31.8057,26.3321 35.8567,26.0041 39.0117,23.6311 C39.3647,23.3651 39.6897,23.0761 39.9997,22.7761" id="Fill-5" fill="#FDF7DF" sketch:type="MSShapeGroup"></path>
            </g>
        </g>
    </g>
</svg>